<?xml version="1.0" encoding="utf-8"?>
<!-- Svg Vector Icons : http://www.onlinewebfonts.com/icon -->
<!DOCTYPE svg PUBLIC "-//W3C//DTD SVG 1.1//EN" "http://www.w3.org/Graphics/SVG/1.1/DTD/svg11.dtd">
<svg version="1.1" xmlns="http://www.w3.org/2000/svg" xmlns:xlink="http://www.w3.org/1999/xlink" x="0px" y="0px" viewBox="0 0 1000 1000" enable-background="new 0 0 1000 1000" xml:space="preserve">
<metadata> Svg Vector Icons : http://www.onlinewebfonts.com/icon </metadata>
<g><path d="M933.6,221.6c-22,6-44.1,11.8-66.1,17.7C786.1,124.9,652.9,50,501.9,50C288.3,50,109.6,199.5,64.1,399.6h63.4c44.2-165.9,194.8-288.2,374.4-288.2c122.1,0,230.8,56.7,301.8,145.1c-4.6,1.2-9.2,2.5-13.8,3.7c-48,12.6-54.4,36.4-19.1,71.3c35.3,34.9,70.4,70.1,105.3,105.5c34.9,35.4,58.6,29,71.2-19.1c12.6-48.1,25.4-96.1,38.5-144.1C998.9,225.9,981.5,208.5,933.6,221.6L933.6,221.6z M501.9,888.6c-128.3,0-241.8-62.5-312.4-158.6c10-2.6,20-5.4,30-8c50.2-13.2,56.9-38,20-74.6C202.5,610.8,165.7,574,129.2,537c-36.5-37-61.3-30.3-74.5,20c-13.1,50.3-26.6,100.6-40.3,150.8c-13.7,50.2,4.4,68.4,54.5,54.6c19.2-5.3,38.6-10.3,57.8-15.5C207.1,869.1,344.9,950,501.9,950c222.4,0,407-162,442.8-374.6h-62.3C847.3,753.8,690.4,888.6,501.9,888.6L501.9,888.6z"/></g>
</svg>